# xmcd
#
# Track frame offsets:
#	182
#	13610
#	27237
#	41842
#	57755
#	69890
#	83727
#	96160
#	108305
#	120530
#	134937
#	148367
#	162577
#	175225
#	187955
#	201915
#
# Disc length: 2886
#
# Revision: 2
# Processed by: cddbd v1.5.1PL0 Copyright (c) Steve Scherf et al.
# Submitted via: EasyCDDAExtractor 5.0.6
# Normalized: r1:TDELIM( - )
#
DISCID=e60b4410
DTITLE=Various Artist - Roots of the Blues
DYEAR=1995
DGENRE=Blues
TTITLE0=Mississippi John Hurt - Stack O'Lee Blues
TTITLE1=Roosevelt Sykes - 44 Blues
TTITLE2=Sleepy John Estes - Divin' Duck Blues
TTITLE3=Bessie Smith - Gimme A Pigfoot
TTITLE4=Charley Patton - Revenue Man Blues
TTITLE5=Kokomo Arnold - Sagefield Woman Blues
TTITLE6=Carl Martin - Old Time Blues
TTITLE7=Robert Johnson - Cross Road Blues
TTITLE8=Sonny Terry - Harmonica Blues
TTITLE9=Leadbelly - East Rider
TTITLE10=Tony Hollins - Crawlin' King Snake
TTITLE11=Big Maceo - Can't You Read
TTITLE12=Big Bill Broonzy - Bad Acting Woman
TTITLE13=Joe Williams - Please Don't Go
TTITLE14=Muddy Waters - Take A Walk With Me
TTITLE15=T-Bone Walker - I Got A Break Baby
EXTD=
EXTT0=
EXTT1=
EXTT2=
EXTT3=
EXTT4=
EXTT5=
EXTT6=
EXTT7=
EXTT8=
EXTT9=
EXTT10=
EXTT11=
EXTT12=
EXTT13=
EXTT14=
EXTT15=
PLAYORDER=
